<?xml version="1.0" encoding="iso-8859-1"?>
<!-- Generator: Adobe Illustrator 19.0.0, SVG Export Plug-In . SVG Version: 6.00 Build 0)  -->
<svg version="1.1" id="Capa_1" xmlns="http://www.w3.org/2000/svg" xmlns:xlink="http://www.w3.org/1999/xlink" x="0px" y="0px"
	 viewBox="0 0 459.752 459.752" style="enable-background:new 0 0 459.752 459.752;" xml:space="preserve">
<path style="fill:#00EFD1;" d="M403.776,204.212v213.42c0.002,9.286-6.389,17.351-15.43,19.47l-96.47,22.65v-248.52l6.47-6.47
	l80.62-19.96c10.721-2.656,21.566,3.881,24.223,14.603C403.579,200.978,403.776,202.592,403.776,204.212L403.776,204.212z"/>
<path style="fill:#00ACEA;" d="M310.266,33.112c21.181,21.099,33.072,49.774,33.04,79.67c-0.015,30.258-12.098,59.261-33.57,80.58
	l-11.39,11.4l-6.47,6.47l-62,62l-55.69-55.7l-24.17-24.17c-7.679-7.805-14.226-16.648-19.45-26.27c-0.04-0.07-0.07-0.14-0.11-0.21
	c-22.98-43.05-16.64-97.58,19.56-133.77C194.31-11.037,265.972-11.037,310.266,33.112L310.266,33.112z M288.576,108.822
	c0-32.419-26.281-58.7-58.7-58.7s-58.7,26.281-58.7,58.7c0,32.419,26.281,58.7,58.7,58.7S288.576,141.241,288.576,108.822
	L288.576,108.822z"/>
<path style="fill:#FEDB41;" d="M291.876,211.232v248.52l-117.69-52.54v-189.68l55.69,55.7L291.876,211.232z"/>
<path style="fill:#00EFD1;" d="M174.186,217.532v189.68l-91.88,30.63c-10.478,3.496-21.806-2.164-25.302-12.642
	c-0.681-2.04-1.028-4.177-1.028-6.328v-212.67c0-8.609,5.511-16.252,13.68-18.97l60.39-20.14l0.41-0.21
	c0.04,0.07,0.07,0.14,0.11,0.21c5.224,9.622,11.771,18.465,19.45,26.27L174.186,217.532z"/>
<g>
</g>
<g>
</g>
<g>
</g>
<g>
</g>
<g>
</g>
<g>
</g>
<g>
</g>
<g>
</g>
<g>
</g>
<g>
</g>
<g>
</g>
<g>
</g>
<g>
</g>
<g>
</g>
<g>
</g>
</svg>
